<svg width="18" height="18" viewBox="0 0 18 18" fill="none" xmlns="http://www.w3.org/2000/svg">
<path d="M17.9935 8.62518C17.9931 8.10797 17.8399 7.60241 17.5531 7.17196C17.2664 6.74151 16.8589 6.40537 16.3818 6.20572C16.0773 4.46753 15.1696 2.89237 13.8184 1.75731C12.4672 0.622254 10.7591 0 8.9944 0C7.22973 0 5.52157 0.622254 4.17039 1.75731C2.81921 2.89237 1.91154 4.46753 1.60704 6.20572C1.06255 6.4348 0.611242 6.84082 0.326095 7.35815C0.0409475 7.87549 -0.0613708 8.47387 0.0356853 9.05656C0.132741 9.63924 0.423498 10.1722 0.860938 10.5691C1.29838 10.9661 1.85693 11.2039 2.44627 11.2441C2.83363 12.0662 3.35897 12.8157 3.99949 13.4603C3.06095 14.4851 2.46531 15.7771 2.29552 17.1563C2.28323 17.254 2.29032 17.3532 2.31639 17.4483C2.34246 17.5433 2.38699 17.6322 2.44745 17.71C2.5079 17.7878 2.58309 17.8529 2.66872 17.9017C2.75436 17.9504 2.84875 17.9818 2.94651 17.994C2.97737 17.9978 3.00842 17.9998 3.03951 18C3.22203 17.9998 3.39821 17.933 3.53504 17.8122C3.67186 17.6914 3.75993 17.5249 3.78274 17.3438C3.91872 16.2564 4.39519 15.2399 5.14397 14.4398C6.2608 15.2642 7.60579 15.722 8.99364 15.75C10.3774 15.7217 11.7185 15.2659 12.8328 14.4451C13.5784 15.2438 14.0529 16.2574 14.1888 17.3415C14.2114 17.5227 14.2994 17.6895 14.4363 17.8104C14.5731 17.9314 14.7494 17.9983 14.932 17.9985C14.9634 17.9983 14.9947 17.9963 15.0258 17.9925C15.2231 17.9678 15.4025 17.8657 15.5246 17.7088C15.6466 17.5518 15.7014 17.3528 15.6768 17.1555C15.5082 15.7798 14.9155 14.4907 13.981 13.4671C14.6251 12.8205 15.1533 12.0681 15.5425 11.2426C16.2068 11.1985 16.8295 10.9036 17.2846 10.4176C17.7396 9.93166 17.993 9.29094 17.9935 8.62518ZM15.1795 9.72991C15.0046 9.69786 14.824 9.72947 14.6703 9.81902C14.5167 9.90857 14.4001 10.0501 14.3418 10.2181C13.6548 12.1666 11.3411 14.2501 8.99364 14.2501C6.64619 14.2501 4.33248 12.1651 3.6455 10.2166C3.58703 10.0487 3.47047 9.90725 3.31685 9.81772C3.16324 9.72819 2.98268 9.69652 2.80776 9.72841C2.74544 9.74063 2.68224 9.7479 2.61877 9.75016C2.34036 9.74683 2.07308 9.64038 1.86862 9.4514C1.66416 9.26241 1.53704 9.00432 1.51185 8.72704C1.48665 8.44976 1.56518 8.17299 1.73224 7.95025C1.8993 7.72752 2.14302 7.57464 2.41627 7.5212C2.57573 7.49229 2.72153 7.41252 2.83186 7.29381C2.94218 7.1751 3.01109 7.02386 3.02826 6.86271C3.12842 5.90371 3.45936 4.98324 3.99276 4.18C4.52616 3.37676 5.24616 2.71466 6.0912 2.2503C5.9684 2.72737 5.96274 3.22705 6.0747 3.70677C6.22718 4.34118 6.58233 4.90858 7.08633 5.32297C7.59032 5.73735 8.21568 5.97612 8.86759 6.00309C9.51951 6.03005 10.1624 5.84374 10.6989 5.47239C11.2354 5.10105 11.6362 4.56492 11.8406 3.94527C11.8739 3.83519 11.8809 3.71882 11.8609 3.60556C11.8409 3.49231 11.7945 3.38535 11.7255 3.29334C11.6565 3.20134 11.5668 3.12686 11.4636 3.07595C11.3605 3.02504 11.2469 2.99912 11.1319 3.00029H11.0186C10.8807 3.00481 10.7477 3.0531 10.6391 3.13818C10.5304 3.22325 10.4516 3.3407 10.4141 3.47353C10.3269 3.73573 10.169 3.96876 9.9578 4.1469C9.74658 4.32504 9.49026 4.44138 9.2171 4.48308C8.94395 4.52477 8.66459 4.49021 8.40984 4.38319C8.15509 4.27618 7.93484 4.10088 7.77341 3.87663C7.61197 3.65237 7.51562 3.38789 7.49498 3.11234C7.47434 2.8368 7.53021 2.56091 7.65643 2.3151C7.78265 2.0693 7.97431 1.86314 8.21027 1.71936C8.44624 1.57559 8.71733 1.49978 8.99364 1.50031C10.4755 1.49677 11.9059 2.04323 13.008 3.03388C14.11 4.02452 14.8052 5.38887 14.959 6.86271C14.9762 7.02386 15.0451 7.1751 15.1554 7.29381C15.2658 7.41252 15.4116 7.49229 15.571 7.5212C15.8443 7.57464 16.088 7.72752 16.255 7.95025C16.4221 8.17299 16.5006 8.44976 16.4754 8.72704C16.4503 9.00432 16.3231 9.26241 16.1187 9.4514C15.9142 9.64038 15.6469 9.74683 15.3685 9.75016C15.3051 9.7484 15.2419 9.74163 15.1795 9.72991Z" fill="white"/>
<path d="M7.11892 9.75027C7.74023 9.75027 8.2439 9.2466 8.2439 8.62529C8.2439 8.00398 7.74023 7.50031 7.11892 7.50031C6.49761 7.50031 5.99394 8.00398 5.99394 8.62529C5.99394 9.2466 6.49761 9.75027 7.11892 9.75027Z" fill="white"/>
<path d="M10.8686 9.75027C11.4899 9.75027 11.9936 9.2466 11.9936 8.62529C11.9936 8.00398 11.4899 7.50031 10.8686 7.50031C10.2473 7.50031 9.74364 8.00398 9.74364 8.62529C9.74364 9.2466 10.2473 9.75027 10.8686 9.75027Z" fill="white"/>
</svg>
