<svg width="18" height="12" viewBox="0 0 18 12" fill="none" xmlns="http://www.w3.org/2000/svg">
<path d="M15.7688 12C14.9293 11.993 14.1244 11.6642 13.52 11.0812C12.915 11.6614 12.1093 11.9853 11.2713 11.9853C10.4333 11.9853 9.62764 11.6614 9.02257 11.0812C8.41751 11.6614 7.61187 11.9853 6.77385 11.9853C5.93582 11.9853 5.13018 11.6614 4.52512 11.0812C3.96498 11.6352 3.21714 11.9581 2.43008 11.9859C1.64301 12.0137 0.874283 11.7443 0.276521 11.2312C0.201788 11.1659 0.140766 11.0864 0.0969952 10.9973C0.0532245 10.9081 0.0275764 10.8112 0.021539 10.7121C0.0155017 10.613 0.0291952 10.5137 0.0618252 10.4199C0.0944553 10.3261 0.145372 10.2397 0.211622 10.1658C0.277871 10.0919 0.358135 10.0318 0.447755 9.98919C0.537376 9.94653 0.63457 9.92211 0.733697 9.91734C0.832825 9.91257 0.931913 9.92754 1.02521 9.96138C1.11851 9.99523 1.20417 10.0473 1.27721 10.1145C1.47409 10.273 1.70473 10.3841 1.95134 10.4392C2.19795 10.4943 2.45391 10.492 2.69948 10.4324C2.94505 10.3728 3.17365 10.2576 3.36764 10.0956C3.56162 9.93356 3.7158 9.7291 3.81827 9.498C3.87028 9.35212 3.96615 9.22594 4.09271 9.13677C4.21928 9.0476 4.37033 8.99982 4.52512 9C4.68018 8.99999 4.83143 9.04809 4.95803 9.13769C5.08462 9.22728 5.18033 9.35395 5.23197 9.50025C5.37066 9.79187 5.58911 10.0382 5.86201 10.2107C6.13491 10.3831 6.45107 10.4747 6.77385 10.4747C7.09662 10.4747 7.41278 10.3831 7.68568 10.2107C7.95858 10.0382 8.17704 9.79187 8.31573 9.50025C8.36736 9.35395 8.46307 9.22728 8.58967 9.13769C8.71626 9.04809 8.86751 8.99999 9.02257 9C9.17764 8.99999 9.32889 9.04809 9.45548 9.13769C9.58208 9.22728 9.67779 9.35395 9.72943 9.50025C9.86811 9.79187 10.0866 10.0382 10.3595 10.2107C10.6324 10.3831 10.9485 10.4747 11.2713 10.4747C11.5941 10.4747 11.9102 10.3831 12.1831 10.2107C12.456 10.0382 12.6745 9.79187 12.8132 9.50025C12.8648 9.35395 12.9605 9.22728 13.0871 9.13769C13.2137 9.04809 13.365 8.99999 13.52 9C13.6751 8.99999 13.8263 9.04809 13.9529 9.13769C14.0795 9.22728 14.1752 9.35395 14.2269 9.50025C14.3293 9.73129 14.4834 9.9357 14.6773 10.0977C14.8712 10.2597 15.0997 10.375 15.3452 10.4346C15.5906 10.4943 15.8465 10.4967 16.0931 10.4417C16.3396 10.3867 16.5703 10.2758 16.7672 10.1175C16.9161 9.99189 17.1079 9.92918 17.3022 9.94264C17.4965 9.95609 17.6779 10.0447 17.808 10.1896C17.9382 10.3345 18.0068 10.5245 17.9995 10.7192C17.9921 10.9139 17.9093 11.0981 17.7686 11.2327C17.2199 11.7273 16.5073 12.0007 15.7688 12ZM15.7688 7.5C14.9293 7.49303 14.1244 7.1642 13.52 6.58125C12.915 7.16139 12.1093 7.48527 11.2713 7.48527C10.4333 7.48527 9.62764 7.16139 9.02257 6.58125C8.41751 7.16139 7.61187 7.48527 6.77385 7.48527C5.93582 7.48527 5.13018 7.16139 4.52512 6.58125C3.96498 7.13518 3.21714 7.4581 2.43008 7.48589C1.64301 7.51367 0.874283 7.2443 0.276521 6.73125C0.201788 6.66591 0.140766 6.58638 0.0969952 6.49726C0.0532245 6.40814 0.0275764 6.31121 0.021539 6.2121C0.0155017 6.11298 0.0291952 6.01366 0.0618252 5.91988C0.0944553 5.8261 0.145372 5.73974 0.211622 5.66581C0.277871 5.59187 0.358135 5.53184 0.447755 5.48919C0.537376 5.44653 0.63457 5.42211 0.733697 5.41734C0.832825 5.41257 0.931913 5.42754 1.02521 5.46138C1.11851 5.49523 1.20417 5.54727 1.27721 5.6145C1.47409 5.77298 1.70473 5.88407 1.95134 5.93919C2.19795 5.99431 2.45391 5.992 2.69948 5.93242C2.94505 5.87284 3.17365 5.75759 3.36764 5.59558C3.56162 5.43356 3.7158 5.2291 3.81827 4.998C3.87028 4.85212 3.96615 4.72594 4.09271 4.63677C4.21928 4.5476 4.37033 4.49982 4.52512 4.5C4.68018 4.49999 4.83143 4.54809 4.95803 4.63769C5.08462 4.72728 5.18033 4.85395 5.23197 5.00025C5.37066 5.29187 5.58911 5.5382 5.86201 5.71066C6.13491 5.88312 6.45107 5.97466 6.77385 5.97466C7.09662 5.97466 7.41278 5.88312 7.68568 5.71066C7.95858 5.5382 8.17704 5.29187 8.31573 5.00025C8.36736 4.85395 8.46307 4.72728 8.58967 4.63769C8.71626 4.54809 8.86751 4.49999 9.02257 4.5C9.17764 4.49999 9.32889 4.54809 9.45548 4.63769C9.58208 4.72728 9.67779 4.85395 9.72943 5.00025C9.86811 5.29187 10.0866 5.5382 10.3595 5.71066C10.6324 5.88312 10.9485 5.97466 11.2713 5.97466C11.5941 5.97466 11.9102 5.88312 12.1831 5.71066C12.456 5.5382 12.6745 5.29187 12.8132 5.00025C12.8648 4.85395 12.9605 4.72728 13.0871 4.63769C13.2137 4.54809 13.365 4.49999 13.52 4.5C13.6751 4.49999 13.8263 4.54809 13.9529 4.63769C14.0795 4.72728 14.1752 4.85395 14.2269 5.00025C14.3293 5.23129 14.4834 5.4357 14.6773 5.59771C14.8712 5.75972 15.0997 5.875 15.3452 5.93464C15.5906 5.99429 15.8465 5.99671 16.0931 5.94172C16.3396 5.88674 16.5703 5.77581 16.7672 5.6175C16.9161 5.49189 17.1079 5.42918 17.3022 5.44264C17.4965 5.45609 17.6779 5.54467 17.808 5.6896C17.9382 5.83453 18.0068 6.02445 17.9995 6.21916C17.9921 6.41386 17.9093 6.59805 17.7686 6.73275C17.2199 7.22731 16.5073 7.50068 15.7688 7.5ZM15.7688 3C14.9293 2.99303 14.1244 2.6642 13.52 2.08125C12.915 2.66139 12.1093 2.98527 11.2713 2.98527C10.4333 2.98527 9.62764 2.66139 9.02257 2.08125C8.41751 2.66139 7.61187 2.98527 6.77385 2.98527C5.93582 2.98527 5.13018 2.66139 4.52512 2.08125C3.96498 2.63518 3.21714 2.9581 2.43008 2.98589C1.64301 3.01367 0.874283 2.7443 0.276521 2.23125C0.197768 2.16714 0.132852 2.08769 0.0857098 1.99773C0.0385677 1.90776 0.0101826 1.80915 0.00227643 1.70788C-0.00562978 1.6066 0.00710766 1.50478 0.0397161 1.40858C0.0723245 1.31238 0.124124 1.22381 0.191973 1.14825C0.259822 1.07268 0.342305 1.01169 0.43442 0.968983C0.526535 0.926274 0.626361 0.902733 0.727843 0.899787C0.829324 0.896842 0.930346 0.914554 1.02478 0.951849C1.11921 0.989145 1.20509 1.04525 1.27721 1.11675C1.47409 1.27523 1.70473 1.38632 1.95134 1.44144C2.19795 1.49656 2.45391 1.49425 2.69948 1.43467C2.94505 1.37509 3.17365 1.25984 3.36764 1.09783C3.56162 0.93581 3.7158 0.731356 3.81827 0.50025C3.8699 0.353954 3.96561 0.227282 4.09221 0.137688C4.21881 0.0480942 4.37006 -1.13508e-05 4.52512 2.00895e-09C4.68018 -1.13508e-05 4.83143 0.0480942 4.95803 0.137688C5.08462 0.227282 5.18033 0.353954 5.23197 0.50025C5.37066 0.791875 5.58911 1.0382 5.86201 1.21066C6.13491 1.38312 6.45107 1.47466 6.77385 1.47466C7.09662 1.47466 7.41278 1.38312 7.68568 1.21066C7.95858 1.0382 8.17704 0.791875 8.31573 0.50025C8.36736 0.353954 8.46307 0.227282 8.58967 0.137688C8.71626 0.0480942 8.86751 -1.13508e-05 9.02257 2.00895e-09C9.17764 -1.13508e-05 9.32889 0.0480942 9.45548 0.137688C9.58208 0.227282 9.67779 0.353954 9.72943 0.50025C9.86811 0.791875 10.0866 1.0382 10.3595 1.21066C10.6324 1.38312 10.9485 1.47466 11.2713 1.47466C11.5941 1.47466 11.9102 1.38312 12.1831 1.21066C12.456 1.0382 12.6745 0.791875 12.8132 0.50025C12.8648 0.353954 12.9605 0.227282 13.0871 0.137688C13.2137 0.0480942 13.365 -1.13508e-05 13.52 2.00895e-09C13.6751 -1.13508e-05 13.8263 0.0480942 13.9529 0.137688C14.0795 0.227282 14.1752 0.353954 14.2269 0.50025C14.3293 0.731293 14.4834 0.935705 14.6773 1.09771C14.8712 1.25972 15.0997 1.375 15.3452 1.43464C15.5906 1.49429 15.8465 1.49671 16.0931 1.44172C16.3396 1.38674 16.5703 1.27581 16.7672 1.1175C16.9161 0.991893 17.1079 0.929181 17.3022 0.942638C17.4965 0.956095 17.6779 1.04467 17.808 1.1896C17.9382 1.33453 18.0068 1.52445 17.9995 1.71915C17.9921 1.91385 17.9093 2.09805 17.7686 2.23275C17.2199 2.72731 16.5073 3.00068 15.7688 3Z" fill="#D6DCE1"/>
</svg>
