<svg width="24" height="24" viewBox="0 0 24 24" fill="none" xmlns="http://www.w3.org/2000/svg">
<path d="M15.1305 5.17583C14.5982 4.67542 14.0402 4.14949 13.472 3.57629C13.0362 3.13662 12.4475 2.93286 11.8635 3.01962C11.2977 3.10254 10.7942 3.45981 10.4891 3.99493C9.68285 5.48942 9.11278 7.12574 8.80355 8.83328C8.68221 8.63894 8.57457 8.43454 8.48158 8.22181C8.16122 7.47316 7.35437 7.1543 6.67942 7.50963C6.516 7.59565 6.36981 7.71716 6.24948 7.86694C5.11495 9.15288 4.486 10.8851 4.50034 12.6843C4.46809 16.4659 6.76141 19.7861 10.0616 20.7359C10.6757 20.9073 11.3061 20.996 11.9393 21C11.9596 21 12.1753 20.9977 12.2626 20.991C16.3007 20.8459 19.505 17.1701 19.5 12.6888C19.4973 9.29018 17.4735 7.38454 15.1305 5.17583ZM11.9224 19.4943C11.419 19.4518 10.9215 19.2256 10.5459 18.8895C9.9578 18.4279 9.56861 17.751 9.4759 16.9712C9.36091 15.7543 10.0373 14.163 11.4192 12.3654C11.5641 12.1777 11.7761 12.0701 11.9989 12.0713C12.2188 12.0696 12.4279 12.1769 12.5691 12.3639C13.8353 14.031 14.5306 15.569 14.5306 16.6951C14.5267 18.1746 13.4841 19.345 12.1565 19.4875C12.0982 19.4938 11.9988 19.5033 11.9224 19.4943ZM15.7704 18.0673C15.7305 18.1018 15.6865 18.1296 15.646 18.1626C15.802 17.6921 15.8824 17.1949 15.8834 16.6936C15.8834 14.7977 14.6422 12.766 13.6019 11.3953C13.2039 10.8725 12.6185 10.5706 12.0016 10.57H11.9988C11.3807 10.5688 10.7931 10.8686 10.3917 11.39C8.73795 13.5388 7.97837 15.4691 8.13392 17.1279C8.17086 17.513 8.25954 17.8898 8.39705 18.2458C6.79089 16.9549 5.84451 14.8842 5.85516 12.6842C5.8421 11.255 6.35021 9.88061 7.26407 8.87298C7.4201 9.23275 7.60745 9.57472 7.82346 9.89408C8.12013 10.339 8.62695 10.5454 9.11265 10.4192C9.60786 10.2977 9.99236 9.8645 10.0941 9.31339C10.3659 7.72015 10.8852 6.1914 11.6288 4.79542C11.7203 4.63582 11.8715 4.53011 12.0407 4.50732C12.2299 4.47908 12.4206 4.5453 12.5616 4.68812C13.1419 5.27331 13.7115 5.81349 14.2525 6.32142C16.5104 8.44836 18.1425 9.98488 18.1425 12.6888C18.1483 14.793 17.2726 16.7808 15.7724 18.0688L15.7704 18.0673Z" fill="#D6DCE1"/>
</svg>
