<svg width="18" height="18" viewBox="0 0 18 18" fill="none" xmlns="http://www.w3.org/2000/svg">
<path d="M15.7589 18.0042C14.9184 17.9972 14.1127 17.6682 13.5076 17.0849C12.9019 17.6654 12.0953 17.9894 11.2564 17.9894C10.4174 17.9894 9.61085 17.6654 9.00511 17.0849C8.39937 17.6654 7.59283 17.9894 6.75386 17.9894C5.9149 17.9894 5.10835 17.6654 4.50261 17.0849C3.94185 17.6391 3.19317 17.9622 2.40522 17.99C1.61728 18.0179 0.847685 17.7483 0.249253 17.235C0.174437 17.1696 0.113346 17.09 0.0695264 17.0009C0.0257065 16.9117 2.97194e-05 16.8147 -0.00601441 16.7156C-0.0120585 16.6164 0.00165037 16.517 0.034317 16.4232C0.0669836 16.3293 0.117957 16.2429 0.184281 16.169C0.250605 16.095 0.330959 16.0349 0.42068 15.9922C0.510401 15.9496 0.607703 15.9251 0.706942 15.9204C0.806181 15.9156 0.90538 15.9306 0.998784 15.9644C1.09219 15.9983 1.17794 16.0504 1.25106 16.1176C1.44816 16.2762 1.67907 16.3873 1.92595 16.4425C2.17283 16.4976 2.42909 16.4953 2.67493 16.4357C2.92077 16.3761 3.14963 16.2608 3.34383 16.0987C3.53803 15.9366 3.69239 15.732 3.79497 15.5008C3.84704 15.3548 3.94302 15.2286 4.06972 15.1393C4.19643 15.0501 4.34765 15.0023 4.50261 15.0025C4.65785 15.0025 4.80927 15.0506 4.93601 15.1403C5.06274 15.2299 5.15856 15.3567 5.21026 15.503C5.3491 15.7948 5.5678 16.0413 5.841 16.2138C6.11421 16.3864 6.43073 16.478 6.75386 16.478C7.077 16.478 7.39351 16.3864 7.66672 16.2138C7.93992 16.0413 8.15862 15.7948 8.29747 15.503C8.34916 15.3567 8.44498 15.2299 8.57172 15.1403C8.69845 15.0506 8.84987 15.0025 9.00511 15.0025C9.16035 15.0025 9.31177 15.0506 9.4385 15.1403C9.56524 15.2299 9.66106 15.3567 9.71275 15.503C9.85159 15.7948 10.0703 16.0413 10.3435 16.2138C10.6167 16.3864 10.9332 16.478 11.2564 16.478C11.5795 16.478 11.896 16.3864 12.1692 16.2138C12.4424 16.0413 12.6611 15.7948 12.8 15.503C12.8517 15.3567 12.9475 15.2299 13.0742 15.1403C13.201 15.0506 13.3524 15.0025 13.5076 15.0025C13.6628 15.0025 13.8143 15.0506 13.941 15.1403C14.0677 15.2299 14.1636 15.3567 14.2153 15.503C14.3178 15.7342 14.4721 15.9387 14.6662 16.1008C14.8603 16.2629 15.089 16.3783 15.3348 16.4379C15.5805 16.4976 15.8367 16.5 16.0835 16.445C16.3304 16.39 16.5613 16.279 16.7584 16.1206C16.9074 15.9949 17.0995 15.9322 17.294 15.9457C17.4885 15.9591 17.6701 16.0477 17.8004 16.1928C17.9307 16.3378 17.9994 16.5278 17.9921 16.7226C17.9847 16.9174 17.9018 17.1017 17.761 17.2365C17.2116 17.7313 16.4982 18.0049 15.7589 18.0042ZM15.7589 13.5017C14.9184 13.4947 14.1127 13.1657 13.5076 12.5824C12.9019 13.1629 12.0953 13.4869 11.2564 13.4869C10.4174 13.4869 9.61085 13.1629 9.00511 12.5824C8.39937 13.1629 7.59283 13.4869 6.75386 13.4869C5.9149 13.4869 5.10835 13.1629 4.50261 12.5824C3.94185 13.1366 3.19317 13.4597 2.40522 13.4875C1.61728 13.5153 0.847685 13.2458 0.249253 12.7325C0.174437 12.6671 0.113346 12.5875 0.0695264 12.4984C0.0257065 12.4092 2.97194e-05 12.3122 -0.00601441 12.2131C-0.0120585 12.1139 0.00165037 12.0145 0.034317 11.9207C0.0669836 11.8268 0.117957 11.7404 0.184281 11.6665C0.250605 11.5925 0.330959 11.5324 0.42068 11.4897C0.510401 11.4471 0.607703 11.4226 0.706942 11.4178C0.806181 11.4131 0.90538 11.4281 0.998784 11.4619C1.09219 11.4958 1.17794 11.5479 1.25106 11.6151C1.44816 11.7737 1.67907 11.8848 1.92595 11.94C2.17283 11.9951 2.42909 11.9928 2.67493 11.9332C2.92077 11.8736 3.14963 11.7583 3.34383 11.5962C3.53803 11.4341 3.69239 11.2295 3.79497 10.9983C3.84704 10.8523 3.94302 10.7261 4.06972 10.6368C4.19643 10.5476 4.34765 10.4998 4.50261 10.5C4.65785 10.5 4.80927 10.5481 4.93601 10.6378C5.06274 10.7274 5.15856 10.8542 5.21026 11.0005C5.3491 11.2923 5.5678 11.5388 5.841 11.7113C6.11421 11.8839 6.43073 11.9755 6.75386 11.9755C7.077 11.9755 7.39351 11.8839 7.66672 11.7113C7.93992 11.5388 8.15862 11.2923 8.29747 11.0005C8.34916 10.8542 8.44498 10.7274 8.57172 10.6378C8.69845 10.5481 8.84987 10.5 9.00511 10.5C9.16035 10.5 9.31177 10.5481 9.4385 10.6378C9.56524 10.7274 9.66106 10.8542 9.71275 11.0005C9.85159 11.2923 10.0703 11.5388 10.3435 11.7113C10.6167 11.8839 10.9332 11.9755 11.2564 11.9755C11.5795 11.9755 11.896 11.8839 12.1692 11.7113C12.4424 11.5388 12.6611 11.2923 12.8 11.0005C12.8517 10.8542 12.9475 10.7274 13.0742 10.6378C13.201 10.5481 13.3524 10.5 13.5076 10.5C13.6628 10.5 13.8143 10.5481 13.941 10.6378C14.0677 10.7274 14.1636 10.8542 14.2153 11.0005C14.3178 11.2317 14.4721 11.4362 14.6662 11.5983C14.8603 11.7604 15.089 11.8758 15.3348 11.9354C15.5805 11.9951 15.8367 11.9975 16.0835 11.9425C16.3304 11.8875 16.5613 11.7765 16.7584 11.6181C16.9074 11.4924 17.0995 11.4297 17.294 11.4432C17.4885 11.4566 17.6701 11.5452 17.8004 11.6903C17.9307 11.8353 17.9994 12.0253 17.9921 12.2201C17.9847 12.4149 17.9018 12.5992 17.761 12.734C17.2116 13.2288 16.4982 13.5024 15.7589 13.5017Z" fill="#D6DCE1"/>
<path d="M12.0948 1.94712L12.1354 1.9819C14.4761 3.98856 16.4966 5.72077 16.5 8.80811C16.5006 9.24708 16.4632 9.68225 16.3896 10.1091C16.1836 10.1934 15.9896 10.3085 15.8147 10.452C15.7976 10.4648 15.778 10.4738 15.7572 10.4785C15.7346 10.4835 15.7112 10.4833 15.6888 10.4778C15.6663 10.4723 15.6454 10.4618 15.6276 10.447C15.6144 10.4359 15.6031 10.4226 15.5944 10.4078C15.4331 10.0083 15.1601 9.66276 14.8072 9.41314C14.4272 9.14435 13.973 9.00001 13.5075 9C13.1875 9.00001 12.8729 9.06824 12.584 9.19823C12.4527 9.25731 12.3268 9.32915 12.208 9.41314C12.1306 9.46793 12.0569 9.52735 11.9875 9.59093C11.5719 8.86177 11.0689 8.18775 10.6057 7.63286C10.409 7.39802 10.1639 7.20923 9.88754 7.07965C9.61114 6.95007 9.31005 6.88281 9.00524 6.88256H8.99847C8.69277 6.88168 8.39054 6.94791 8.11276 7.07665C7.83499 7.20539 7.58834 7.39356 7.38994 7.62809C6.81873 8.30279 6.3542 8.95382 5.99719 9.57914C5.93159 9.51999 5.86233 9.46453 5.78967 9.41314C5.40966 9.14435 4.95543 9.00001 4.48997 9C4.02451 9.00001 3.5705 9.14435 3.19049 9.41314C2.83759 9.66276 2.56463 10.0083 2.40331 10.4078C2.39456 10.4226 2.38333 10.4359 2.37005 10.447C2.3523 10.4618 2.33139 10.4723 2.30893 10.4778C2.28646 10.4833 2.26305 10.4835 2.24048 10.4785C2.21965 10.4738 2.20005 10.4648 2.18298 10.452C2.00607 10.3069 1.80966 10.1908 1.60107 10.1063C1.53031 9.67825 1.49622 9.2426 1.50033 8.80401C1.48604 7.16841 2.11473 5.59368 3.24888 4.4243C3.39743 4.2562 3.58493 4.12779 3.79466 4.05052C4.00439 3.97326 4.22982 3.94954 4.45085 3.98149C4.67188 4.01343 4.88163 4.10005 5.06139 4.23361C5.24115 4.36717 5.38534 4.54352 5.48108 4.74693C5.57432 4.94017 5.68195 5.12601 5.80305 5.30284C6.11259 3.75073 6.68266 2.26332 7.4887 0.904709C7.63946 0.664458 7.8407 0.460519 8.07821 0.3073C8.31571 0.154081 8.58368 0.0553185 8.86319 0.01799C9.15158 -0.0211468 9.44497 0.00375031 9.72282 0.0909384C10.0007 0.178126 10.2563 0.325499 10.4717 0.522738C11.0275 1.03249 11.5736 1.50048 12.0948 1.94712Z" fill="#D6DCE1"/>
</svg>
