<svg width="18" height="16" viewBox="0 0 18 16" fill="none" xmlns="http://www.w3.org/2000/svg">
<path d="M6 12.5C6 14.1569 4.65685 15.5 3 15.5C1.34315 15.5 0 14.1569 0 12.5C0 10.8431 1.34315 9.5 3 9.5C4.65685 9.5 6 10.8431 6 12.5Z" fill="#D6DCE1"/>
<path d="M18 12.5C18 14.1569 16.6569 15.5 15 15.5C13.3431 15.5 12 14.1569 12 12.5C12 10.8431 13.3431 9.5 15 9.5C16.6569 9.5 18 10.8431 18 12.5Z" fill="#D6DCE1"/>
<path d="M12 3.5C12 5.15685 10.6569 6.5 9 6.5C7.34315 6.5 6 5.15685 6 3.5C6 1.84315 7.34315 0.5 9 0.5C10.6569 0.5 12 1.84315 12 3.5Z" fill="#D6DCE1"/>
</svg>
